<svg xmlns="http://www.w3.org/2000/svg" viewBox="0 0 1155.15 217.98"><defs><style>.cls-1{fill:#008c62;}.cls-2{fill:#00e6a0;}.cls-3{fill:#fff;}</style></defs><title>logo-white-50</title><g id="Layer_2" data-name="Layer 2"><g id="Request_Green_Logo_for_Background" data-name="Request Green Logo for Background"><path class="cls-1" d="M110.45,99.93l44.62-44.45a17.67,17.67,0,0,0,5.22-12.55l.08-36a7.19,7.19,0,0,0-2-4.95L72.75,87.35a17.77,17.77,0,0,0,0,25.16l60.38,60.17a17.76,17.76,0,1,0,25.08-25.15Z"/><path class="cls-2" d="M153.38,0H19C8,0,0,8.21,0,19.43v140.3a17.86,17.86,0,0,0,18.09,18.09h0a17.8,17.8,0,0,0,18.09-18.09V34.62h89.48L158.37,2A6.89,6.89,0,0,0,153.38,0Z"/><path class="cls-3" d="M279,110.84v59.91H251.26V11.13h72.37c37.83,0,57.07,17.93,57.07,45.7,0,23-16.62,39.8-41.54,44.39,7.21,1.09,12.9,2.84,17.49,5.9,9.18,5.91,14,16.62,19.24,35l8.31,28.64H354.68l-7.43-28.2c-6.78-26-13.12-31.71-40.89-31.71Zm0-75.65V90.73h36.73c24.05,0,37.39-10.94,37.39-28.65,0-17-10.71-26.89-36.29-26.89Z"/><path class="cls-3" d="M456.35,172.94c-42.2,0-63.84-26.89-63.84-62.75,0-34.77,23.83-64.29,63-64.29,40,0,58.82,28.64,58.82,61.44V117H419.18c2.19,20.78,14.65,33.24,36.74,33.24,16,0,25.14-6.56,32.36-19.24l23,12.46C500.74,160.7,483.68,172.94,456.35,172.94Zm-36.73-73H487.4c-1.09-18.15-10.71-31.49-32.14-31.49C434.92,68.42,422.68,80.23,419.62,99.91Z"/><path class="cls-3" d="M585.57,46.78c19.9,0,33.24,8.74,40.89,26.23V48.31h27.11V218H626V145.39c-8.09,17.27-23,26.89-42.64,26.89-29.08,0-52.69-20.77-52.69-62.09C530.69,68,557.58,46.78,585.57,46.78Zm42.86,62.53c0-23.39-10.72-40.45-35-40.45-22.74,0-34.76,16.4-34.76,40.89,0,24.71,11.37,40,34.76,40C617.71,149.76,628.43,132.71,628.43,109.31Z"/><path class="cls-3" d="M793.07,170.75H765.74V141.89c-8.31,20.77-23.4,31.27-42,31.27-29.52,0-43.74-19.68-43.74-49.64V48.31h27.34v67.78c0,20.77,7.21,34.11,27.77,34.11,18.8,0,30.39-16.18,30.39-41.76V48.31h27.55Z"/><path class="cls-3" d="M878.34,172.94c-42.2,0-63.85-26.89-63.85-62.75,0-34.77,23.84-64.29,63-64.29,40,0,58.82,28.64,58.82,61.44V117H841.17c2.18,20.78,14.65,33.24,36.73,33.24,16,0,25.15-6.56,32.36-19.24l23,12.46C922.73,160.7,905.67,172.94,878.34,172.94Zm-36.74-73h67.79c-1.1-18.15-10.72-31.49-32.14-31.49C856.91,68.42,844.67,80.23,841.6,99.91Z"/><path class="cls-3" d="M968.2,130.3c10.06,13.12,22.3,20.12,40.23,20.12,16.84,0,23.83-8.09,23.83-16.62,0-12.46-19.24-13.34-41.1-17.05C969.51,113.47,952.89,106,952.89,84c0-21.43,17.93-38.49,48.76-38.49,24.93,0,42.42,7.44,57.29,24.93l-21,17.93c-9.4-13.34-21-19.9-37.83-19.9s-23.18,7.66-23.18,15.75c0,10.93,14.44,12.9,34.77,16,23.18,3.5,44.82,9,44.82,33.67,0,23-18.36,39.58-48.76,39.58-27.76,0-47.44-9.19-59.47-24.27Z"/><path class="cls-3" d="M1155.15,167.91c-6.56,3.28-13.34,5-22.74,5-26.68,0-37.61-14.21-37.61-41.33V71.05h-28V48.31H1095v-31L1120.6,2V48.31h34.55V71.05H1120.6v57.28c0,15.31,6.34,21,18.37,21,6.34,0,10.27-1.09,16.18-3.49Z"/></g></g></svg>