<svg xmlns="http://www.w3.org/2000/svg" viewBox="0 0 903.42 983.24"><defs><style>.cls-1{fill:#737373;}.cls-2{fill:#b3b3b3;}</style></defs><title>Asset 1</title><g id="Layer_2" data-name="Layer 2"><g id="Layer_1-2" data-name="Layer 1"><g id="Request_Green_Logo_for_Background" data-name="Request Green Logo for Background"><path class="cls-1" d="M610.54,552.44,857.23,306.68A97.91,97.91,0,0,0,886.1,237.3l.42-198.79c-.27-11-4.34-20.57-11.06-27.39L402.17,482.9A98.21,98.21,0,0,0,402,621.79l.19.19L735.93,954.6A98.18,98.18,0,0,0,874.55,815.52Z"/><path class="cls-2" d="M847.9,0H104.75C44.36,0,0,45.4,0,107.44V883c0,55.24,42.77,100,100,100h0c55.23,0,100-42.17,100-100V191.37H694.6L875.46,11.12A38.06,38.06,0,0,0,847.9,0Z"/></g></g></g></svg>