<svg xmlns="http://www.w3.org/2000/svg" viewBox="0 0 903.41 983.22"><defs><style>.cls-1{fill:#007599;}.cls-2{fill:#00c5ff;}</style></defs><title>icon-blue</title><g id="Layer_2" data-name="Layer 2"><g id="Request_Cyan_Logo_for_Background" data-name="Request Cyan Logo for Background"><path class="cls-1" d="M610.54,552.43,857.23,306.67a97.88,97.88,0,0,0,28.87-69.38l.42-198.79c-.27-11-4.34-20.57-11.06-27.39L402.17,482.89a98.21,98.21,0,0,0,0,139.08L735.93,954.59A98.18,98.18,0,0,0,874.55,815.51Z"/><path class="cls-2" d="M847.9,0H104.75C44.36,0,0,45.39,0,107.43V883c0,55.24,42.77,100,100,100h0c55.23,0,100-42.17,100-100V191.36h494.6L875.46,11.11A38.09,38.09,0,0,0,847.9,0Z"/></g></g></svg>