<svg xmlns="http://www.w3.org/2000/svg" viewBox="0 0 903.89 1284.55"><defs><style>.cls-1{fill:#8c7f00;}.cls-2{fill:#ffe800;}.cls-3{fill:#262000;}</style></defs><title>logo-sq-yellow</title><g id="Layer_2" data-name="Layer 2"><g id="Request_Yellow_Logo_for_Backgound" data-name="Request Yellow Logo for Backgound"><path class="cls-1" d="M610.54,552.43,857.23,306.67a97.88,97.88,0,0,0,28.87-69.38l.42-198.79c-.27-11-4.34-20.57-11.06-27.39L402.17,482.89a98.21,98.21,0,0,0,0,139.08L735.93,954.59A98.18,98.18,0,0,0,874.55,815.51Z"/><path class="cls-2" d="M847.9,0H104.75C44.36,0,0,45.39,0,107.43V883c0,55.24,42.77,100,100,100h0c55.23,0,100-42.17,100-100V191.36h494.6L875.46,11.11A38.09,38.09,0,0,0,847.9,0Z"/><path class="cls-3" d="M27.77,1177.41v59.91H0V1077.7H72.37c37.83,0,57.07,17.93,57.07,45.7,0,23-16.61,39.79-41.54,44.39,7.22,1.09,12.9,2.84,17.49,5.9,9.19,5.9,14,16.62,19.24,35l8.31,28.64H103.42L96,1209.11c-6.78-26-13.12-31.7-40.89-31.7Zm0-75.66v55.54H64.5c24.06,0,37.39-10.93,37.39-28.64,0-17.06-10.71-26.9-36.29-26.9Z"/><path class="cls-3" d="M205.09,1239.51c-42.2,0-63.84-26.9-63.84-62.76,0-34.76,23.83-64.28,63-64.28,40,0,58.82,28.64,58.82,61.44v9.62H167.92c2.19,20.77,14.65,33.24,36.74,33.24,16,0,25.14-6.56,32.36-19.25L260,1210C249.48,1227.26,232.43,1239.51,205.09,1239.51Zm-36.73-73h67.78C235.05,1148.33,225.43,1135,204,1135,183.67,1135,171.42,1146.8,168.36,1166.47Z"/><path class="cls-3" d="M334.31,1113.34c19.9,0,33.24,8.75,40.89,26.24v-24.71h27.11v169.68H374.76V1212c-8.09,17.27-22.95,26.89-42.63,26.89-29.09,0-52.7-20.77-52.7-62.1C279.43,1134.55,306.32,1113.34,334.31,1113.34Zm42.86,62.54c0-23.4-10.71-40.45-35-40.45-22.74,0-34.76,16.39-34.76,40.88,0,24.71,11.37,40,34.76,40C366.46,1216.33,377.17,1199.27,377.17,1175.88Z"/><path class="cls-3" d="M541.81,1237.32H514.48v-28.86c-8.31,20.77-23.4,31.26-42,31.26-29.52,0-43.73-19.68-43.73-49.63v-75.22H456.1v67.79c0,20.77,7.21,34.11,27.77,34.11,18.8,0,30.39-16.18,30.39-41.77v-60.13h27.55Z"/><path class="cls-3" d="M627.08,1239.51c-42.2,0-63.85-26.9-63.85-62.76,0-34.76,23.84-64.28,63-64.28,40,0,58.81,28.64,58.81,61.44v9.62H589.91c2.19,20.77,14.65,33.24,36.73,33.24,16,0,25.15-6.56,32.36-19.25L682,1210C671.47,1227.26,654.41,1239.51,627.08,1239.51Zm-36.73-73h67.78C657,1148.33,647.42,1135,626,1135,605.65,1135,593.41,1146.8,590.35,1166.47Z"/><path class="cls-3" d="M716.94,1196.87C727,1210,739.24,1217,757.17,1217c16.84,0,23.84-8.09,23.84-16.61,0-12.47-19.25-13.34-41.11-17.06-21.65-3.28-38.27-10.71-38.27-32.8,0-21.43,17.93-38.48,48.76-38.48,24.93,0,42.42,7.43,57.29,24.93l-21,17.93c-9.4-13.34-21-19.9-37.83-19.9s-23.17,7.65-23.17,15.74c0,10.93,14.43,12.9,34.76,16,23.18,3.5,44.83,9,44.83,33.68,0,23-18.37,39.57-48.76,39.57-27.77,0-47.45-9.18-59.48-24.27Z"/><path class="cls-3" d="M903.89,1234.48c-6.56,3.28-13.34,5-22.74,5-26.68,0-37.61-14.22-37.61-41.33v-60.57h-28v-22.74h28.21v-31l25.58-15.3v46.35h34.55v22.74H869.34v57.29c0,15.31,6.34,21,18.37,21,6.34,0,10.27-1.09,16.18-3.5Z"/></g></g></svg>